<?xml version="1.0" encoding="UTF-8"?>
<!DOCTYPE svg PUBLIC "-//W3C//DTD SVG 1.1//EN" "http://www.w3.org/Graphics/SVG/1.1/DTD/svg11.dtd">
<svg xmlns="http://www.w3.org/2000/svg" version="1.1" width="480px" height="480px" style="shape-rendering:geometricPrecision; text-rendering:geometricPrecision; image-rendering:optimizeQuality; fill-rule:evenodd; clip-rule:evenodd" xmlns:xlink="http://www.w3.org/1999/xlink">
<g><path style="opacity:0.986" fill="#000000" d="M 479.5,150.5 C 479.5,163.167 479.5,175.833 479.5,188.5C 476.814,202.372 471.648,215.372 464,227.5C 465.125,318.447 427.292,387.613 350.5,435C 296.286,464.358 239.286,471.358 179.5,456C 111.554,435.446 62.7207,392.946 33,328.5C 13.4856,279.951 10.1523,230.285 23,179.5C 27.4306,162.807 33.9306,146.974 42.5,132C 31.696,130.306 21.0293,127.972 10.5,125C 5.64549,122.643 1.97883,119.143 -0.5,114.5C -0.5,108.5 -0.5,102.5 -0.5,96.5C 3.18481,88.061 9.68481,83.3944 19,82.5C 37.1351,84.9551 55.3017,86.7885 73.5,88C 126.983,32.2848 192.316,8.61809 269.5,17C 315.111,23.4781 355.111,41.8114 389.5,72C 418.981,78.8147 443.481,93.648 463,116.5C 470.902,126.728 476.402,138.061 479.5,150.5 Z"/></g>
<g><path style="opacity:1" fill="#4678fb" d="M 219.5,19.5 C 274.182,15.8701 323.848,29.7034 368.5,61C 372.5,64.3333 376.5,67.6667 380.5,71C 366.166,71.7694 351.833,72.1027 337.5,72C 326.162,64.9981 314.162,63.6648 301.5,68C 296.226,72.4353 291.893,77.6019 288.5,83.5C 284.86,86.1674 280.86,87.3341 276.5,87C 275.328,86.5814 274.328,85.9147 273.5,85C 265.514,84.0006 257.514,83.6672 249.5,84C 241.606,86.2832 233.939,89.1165 226.5,92.5C 215.525,91.3827 204.525,90.5494 193.5,90C 155.496,89.8333 117.496,89.3333 79.5,88.5C 117.908,48.9633 164.575,25.9633 219.5,19.5 Z"/></g>
<g><path style="opacity:1" fill="#001302" d="M 331.5,72.5 C 328.309,71.9078 325.309,70.7411 322.5,69C 307.984,66.816 297.651,72.4826 291.5,86C 284.784,90.9724 277.784,91.639 270.5,88C 258.712,84.8468 247.712,86.3468 237.5,92.5C 236.448,92.6495 235.448,92.4828 234.5,92C 246.122,85.403 258.455,83.7364 271.5,87C 274.801,89.3737 278.467,90.0404 282.5,89C 285.167,87.6667 287.833,86.3333 290.5,85C 300.562,66.5388 314.229,62.3721 331.5,72.5 Z"/></g>
<g><path style="opacity:1" fill="#009f16" d="M 331.5,72.5 C 331.082,73.2216 330.416,73.7216 329.5,74C 322.761,74.7812 316.094,75.7812 309.5,77C 304.374,80.4754 301.208,85.3087 300,91.5C 298.894,96.7695 298.227,102.103 298,107.5C 297.927,136.545 297.093,165.545 295.5,194.5C 292.78,192.083 290.78,189.083 289.5,185.5C 290.311,184.784 290.978,183.95 291.5,183C 289.914,178.67 289.081,174.17 289,169.5C 287.647,168.296 285.981,167.629 284,167.5C 278.552,168.391 273.552,170.391 269,173.5C 261.862,167.802 253.695,165.969 244.5,168C 240.932,169.618 237.265,170.951 233.5,172C 230.6,172.943 228.267,174.61 226.5,177C 219.69,177.122 213.023,178.122 206.5,180C 204.833,181.667 203.167,183.333 201.5,185C 197.271,186.115 193.271,187.781 189.5,190C 184.18,191.837 178.846,192.67 173.5,192.5C 172.276,190.172 172.276,187.839 173.5,185.5C 177.299,183.907 181.299,183.074 185.5,183C 189.573,178.354 190.573,173.021 188.5,167C 189.89,161.807 192.224,157.14 195.5,153C 200.64,150.766 205.973,149.099 211.5,148C 221.557,148.533 230.724,146.033 239,140.5C 239.49,139.207 239.657,137.873 239.5,136.5C 248.313,136.411 257.313,136.244 266.5,136C 281.058,130.712 285.891,120.545 281,105.5C 277.958,98.8871 272.791,95.0538 265.5,94C 256.134,93.7523 246.8,93.2523 237.5,92.5C 247.712,86.3468 258.712,84.8468 270.5,88C 277.784,91.639 284.784,90.9724 291.5,86C 297.651,72.4826 307.984,66.816 322.5,69C 325.309,70.7411 328.309,71.9078 331.5,72.5 Z"/></g>
<g><path style="opacity:1" fill="#009f16" d="M 344.5,111.5 C 370.451,108.069 394.451,113.236 416.5,127C 441.174,143.503 448.008,165.67 437,193.5C 432.269,204.198 425.436,213.031 416.5,220C 405.77,227.78 393.937,233.28 381,236.5C 378.942,235.888 377.109,234.888 375.5,233.5C 369.137,221.322 359.137,213.822 345.5,211C 342.5,207.333 339.5,203.667 336.5,200C 335.552,199.517 334.552,199.351 333.5,199.5C 335.281,170.528 336.281,141.528 336.5,112.5C 339.385,112.806 342.052,112.473 344.5,111.5 Z"/></g>
<g><path style="opacity:1" fill="#00a017" d="M 101.5,133.5 C 104.809,144.075 101.976,152.742 93,159.5C 88.8141,164.816 87.4808,170.816 89,177.5C 94.9127,191.52 91.7461,203.02 79.5,212C 75.489,213.442 71.8223,215.442 68.5,218C 65.868,218.449 63.368,219.283 61,220.5C 46.1334,214.771 39.1334,219.771 40,235.5C 39.2703,239.896 36.7703,242.73 32.5,244C 29.5,244.333 26.5,244.667 23.5,245C 22.2899,246.039 21.2899,247.206 20.5,248.5C 17.6418,207.31 26.4751,168.643 47,132.5C 48.5691,131.878 50.2358,131.544 52,131.5C 68.5612,132.114 85.0612,132.781 101.5,133.5 Z"/></g>
<g><path style="opacity:1" fill="#274799" d="M 181.5,132.5 C 171.5,132.5 161.5,132.5 151.5,132.5C 151.5,139.167 151.5,145.833 151.5,152.5C 150.509,145.687 150.175,138.687 150.5,131.5C 161.014,131.172 171.347,131.506 181.5,132.5 Z"/></g>
<g><path style="opacity:1" fill="#4679fc" d="M 151.5,152.5 C 151.5,145.833 151.5,139.167 151.5,132.5C 161.5,132.5 171.5,132.5 181.5,132.5C 199.869,132.884 218.203,133.884 236.5,135.5C 235.188,138.536 232.854,140.702 229.5,142C 219.852,143.721 210.186,145.388 200.5,147C 197.417,148.139 194.417,149.472 191.5,151C 186.512,158.47 184.679,166.637 186,175.5C 183.55,179.905 179.717,181.738 174.5,181C 172.671,181.273 171.171,182.107 170,183.5C 169.333,187.167 169.333,190.833 170,194.5C 171.299,195.98 172.966,196.646 175,196.5C 188.757,195.346 200.924,190.513 211.5,182C 217.449,180.927 223.449,180.26 229.5,180C 231.208,177.957 233.208,176.29 235.5,175C 239.419,174.25 243.085,172.917 246.5,171C 250.167,170.333 253.833,170.333 257.5,171C 261.401,173.118 265.401,174.952 269.5,176.5C 274.708,175.376 279.541,173.376 284,170.5C 284.772,170.645 285.439,170.978 286,171.5C 286.207,175.089 286.707,178.589 287.5,182C 285.637,183.418 285.137,185.251 286,187.5C 287.861,189.888 289.194,192.554 290,195.5C 291.584,196.861 293.418,197.528 295.5,197.5C 295.665,200.518 295.498,203.518 295,206.5C 290.729,204.504 286.229,204.004 281.5,205C 276.49,206.507 271.49,208.007 266.5,209.5C 258.54,206.845 250.54,204.512 242.5,202.5C 238.976,203.815 235.309,204.815 231.5,205.5C 227.538,205.108 223.872,203.942 220.5,202C 216.5,201.333 212.5,201.333 208.5,202C 205.167,206.667 201.833,211.333 198.5,216C 193.544,216.998 188.544,217.831 183.5,218.5C 180.731,223.039 178.231,227.706 176,232.5C 172.897,237.052 169.564,241.386 166,245.5C 165.333,249.167 165.333,252.833 166,256.5C 168.03,259.226 169.53,262.226 170.5,265.5C 167.409,273.881 167.243,282.214 170,290.5C 171.878,292.043 173.378,293.876 174.5,296C 178.167,297 181.833,298 185.5,299C 204.91,300.65 224.41,302.484 244,304.5C 247.168,304.457 250.168,303.791 253,302.5C 254,303.5 255,304.5 256,305.5C 256.82,316.834 258.654,328 261.5,339C 260.65,344.201 258.817,349.034 256,353.5C 255.333,360.167 255.333,366.833 256,373.5C 257.333,374.167 258.333,375.167 259,376.5C 261.53,388.731 262.197,401.064 261,413.5C 261.586,419.452 264.752,421.618 270.5,420C 276.008,414.155 279.842,407.321 282,399.5C 284.498,397.583 287.165,395.916 290,394.5C 296.779,408.045 306.945,411.211 320.5,404C 323.944,400.889 326.111,397.056 327,392.5C 327.168,384.479 327.668,376.479 328.5,368.5C 330.167,367.167 331.833,365.833 333.5,364.5C 335.438,358.52 337.271,352.52 339,346.5C 339.333,335.5 339.667,324.5 340,313.5C 342.514,306.75 343.848,299.75 344,292.5C 345.981,287.872 348.481,283.539 351.5,279.5C 381.576,279.9 409.243,272.067 434.5,256C 439.539,252.474 444.206,248.474 448.5,244C 450.902,243.186 453.235,243.353 455.5,244.5C 457.154,246.143 458.487,247.976 459.5,250C 452.989,329.412 415.989,389.745 348.5,431C 288.691,463.059 226.691,468.059 162.5,446C 141.532,438.106 122.365,427.273 105,413.5C 104.153,410.51 105.32,409.176 108.5,409.5C 108.665,406.482 108.498,403.482 108,400.5C 106,398.5 104,396.5 102,394.5C 100.009,381.491 93.3424,371.824 82,365.5C 81.5272,363.221 80.5272,361.221 79,359.5C 79.9994,348.147 79.6661,336.814 78,325.5C 74.6137,317.121 68.4471,311.954 59.5,310C 55.9828,305.098 52.6494,300.098 49.5,295C 45.6049,293.734 41.6049,293.234 37.5,293.5C 37.5514,295.57 36.8847,297.403 35.5,299C 38.6683,305.686 39.335,312.686 37.5,320C 38.2389,324.488 39.5722,328.821 41.5,333C 41.3333,333.5 41.1667,334 41,334.5C 28.691,309.598 21.8577,283.265 20.5,255.5C 21.5,255.5 22.5,255.5 23.5,255.5C 23.6846,248.503 27.3513,245.67 34.5,247C 36.9012,246.205 39.0679,245.038 41,243.5C 42.6885,237.003 44.1885,230.503 45.5,224C 47.7249,222.869 50.0583,222.036 52.5,221.5C 58.9395,224.171 65.2728,224.004 71.5,221C 81.9139,216.92 89.4139,209.754 94,199.5C 94.1667,196.167 94.3333,192.833 94.5,189.5C 94.2209,182.343 93.3876,175.343 92,168.5C 94.5797,163.916 97.9131,159.916 102,156.5C 106.828,149.048 107.662,141.215 104.5,133C 105.793,132.51 107.127,132.343 108.5,132.5C 111.058,182.865 114.225,233.199 118,283.5C 118.421,307.349 119.255,331.183 120.5,355C 120.622,364.56 119.956,374.06 118.5,383.5C 119.92,396.42 127.086,403.42 140,404.5C 145.049,404.595 149.549,403.095 153.5,400C 159.022,392.771 162.189,384.604 163,375.5C 161.397,341.199 160.064,306.865 159,272.5C 155.978,232.527 153.478,192.527 151.5,152.5 Z"/></g>
<g><path style="opacity:1" fill="#001402" d="M 101.5,133.5 C 102.117,133.611 102.617,133.944 103,134.5C 105.789,145.132 102.789,153.798 94,160.5C 92.4138,162.67 91.0804,165.004 90,167.5C 90.1907,175.072 91.024,182.572 92.5,190C 93.356,195.881 91.856,201.047 88,205.5C 80.3936,213.251 71.3936,218.584 61,221.5C 46.5912,216.246 39.9245,221.246 41,236.5C 40.2703,240.896 37.7703,243.73 33.5,245C 30.5,245.333 27.5,245.667 24.5,246C 23.5291,247.481 22.1958,248.315 20.5,248.5C 21.2899,247.206 22.2899,246.039 23.5,245C 26.5,244.667 29.5,244.333 32.5,244C 36.7703,242.73 39.2703,239.896 40,235.5C 39.1334,219.771 46.1334,214.771 61,220.5C 63.368,219.283 65.868,218.449 68.5,218C 71.8223,215.442 75.489,213.442 79.5,212C 91.7461,203.02 94.9127,191.52 89,177.5C 87.4808,170.816 88.8141,164.816 93,159.5C 101.976,152.742 104.809,144.075 101.5,133.5 Z"/></g>
<g><path style="opacity:1" fill="#001402" d="M 239.5,136.5 C 239.657,137.873 239.49,139.207 239,140.5C 230.724,146.033 221.557,148.533 211.5,148C 205.973,149.099 200.64,150.766 195.5,153C 192.224,157.14 189.89,161.807 188.5,167C 190.573,173.021 189.573,178.354 185.5,183C 181.299,183.074 177.299,183.907 173.5,185.5C 172.276,187.839 172.276,190.172 173.5,192.5C 178.846,192.67 184.18,191.837 189.5,190C 193.271,187.781 197.271,186.115 201.5,185C 203.167,183.333 204.833,181.667 206.5,180C 213.023,178.122 219.69,177.122 226.5,177C 228.267,174.61 230.6,172.943 233.5,172C 237.265,170.951 240.932,169.618 244.5,168C 253.695,165.969 261.862,167.802 269,173.5C 273.552,170.391 278.552,168.391 284,167.5C 285.981,167.629 287.647,168.296 289,169.5C 289.081,174.17 289.914,178.67 291.5,183C 290.978,183.95 290.311,184.784 289.5,185.5C 290.78,189.083 292.78,192.083 295.5,194.5C 294.207,195.645 293.041,195.311 292,193.5C 290.556,190.945 289.389,188.279 288.5,185.5C 288.818,184.353 289.484,183.519 290.5,183C 288.85,179.06 288.017,174.893 288,170.5C 286.991,169.342 285.658,168.675 284,168.5C 278.813,170.017 273.813,172.017 269,174.5C 262.149,168.933 254.316,167.099 245.5,169C 241.932,170.618 238.265,171.951 234.5,173C 231.6,173.943 229.267,175.61 227.5,178C 220.69,178.122 214.023,179.122 207.5,181C 205.833,182.667 204.167,184.333 202.5,186C 198.271,187.115 194.271,188.781 190.5,191C 184.573,193.092 178.573,193.925 172.5,193.5C 171.252,190.494 171.252,187.494 172.5,184.5C 176.299,182.907 180.299,182.074 184.5,182C 185.304,180.229 186.471,178.729 188,177.5C 188.245,173.147 188.245,168.813 188,164.5C 189.227,159.799 191.394,155.632 194.5,152C 199.64,149.766 204.973,148.099 210.5,147C 220.287,147.512 229.287,145.179 237.5,140C 238.085,138.698 238.751,137.531 239.5,136.5 Z"/></g>
<g><path style="opacity:1" fill="#001302" d="M 294.5,209.5 C 292.135,208.406 289.635,207.739 287,207.5C 279.972,209.189 272.972,210.856 266,212.5C 258.048,210.959 250.381,208.626 243,205.5C 234.521,209.471 226.021,209.304 217.5,205C 215.5,204.333 213.5,204.333 211.5,205C 208.399,209.611 205.066,214.111 201.5,218.5C 196.396,219.947 191.229,220.947 186,221.5C 181.826,231.192 176.159,239.859 169,247.5C 168.833,248.667 168.667,249.833 168.5,251C 170.718,255.78 172.385,260.78 173.5,266C 172.453,271.16 171.453,276.327 170.5,281.5C 172.319,286.488 175.153,290.821 179,294.5C 179.893,293.919 180.893,293.585 182,293.5C 184.149,294.299 186.316,295.133 188.5,296C 206.757,297.601 225.091,299.434 243.5,301.5C 246.807,300.705 250.141,300.039 253.5,299.5C 257.457,300.031 259.624,302.364 260,306.5C 260.759,317.274 262.259,327.941 264.5,338.5C 264.192,344.926 262.359,350.926 259,356.5C 258.333,361.167 258.333,365.833 259,370.5C 261.106,372.377 262.439,374.71 263,377.5C 264.666,388.814 264.999,400.147 264,411.5C 264.833,413.167 265.667,414.833 266.5,416.5C 267.002,417.521 267.668,417.688 268.5,417C 272.919,410.994 276.419,404.494 279,397.5C 281.927,394.288 285.427,391.955 289.5,390.5C 286.383,393.011 283.216,395.678 280,398.5C 277.461,405.244 274.128,411.578 270,417.5C 268.506,418.747 267.006,418.747 265.5,417.5C 264.667,415.833 263.833,414.167 263,412.5C 262.5,406.491 262.667,400.491 263.5,394.5C 263.066,389.161 262.566,383.827 262,378.5C 261.439,375.71 260.106,373.377 258,371.5C 256.164,361.813 257.83,352.813 263,344.5C 264.034,336.578 263.034,328.911 260,321.5C 259.667,316.833 259.333,312.167 259,307.5C 258.575,303.949 256.741,301.616 253.5,300.5C 250.193,301.295 246.859,301.961 243.5,302.5C 224.748,300.467 206.082,298.634 187.5,297C 185.464,296.546 183.63,295.713 182,294.5C 180.535,295.33 179.035,295.496 177.5,295C 173.37,291.369 170.703,286.869 169.5,281.5C 170.269,276.281 171.269,271.114 172.5,266C 170.8,260.952 169.134,255.952 167.5,251C 167.667,249.5 167.833,248 168,246.5C 175.159,238.859 180.826,230.192 185,220.5C 190.229,219.947 195.396,218.947 200.5,217.5C 204.066,213.111 207.399,208.611 210.5,204C 213.167,203.333 215.833,203.333 218.5,204C 226.642,208.337 234.809,208.504 243,204.5C 250.518,207.227 258.185,209.561 266,211.5C 272.881,209.43 279.881,207.764 287,206.5C 290.168,206.106 292.668,207.106 294.5,209.5 Z"/></g>
<g><path style="opacity:1" fill="#4577fa" d="M 333.5,203.5 C 336.635,206.808 339.635,210.308 342.5,214C 350.086,215.626 357.086,218.626 363.5,223C 366.588,227.843 369.921,232.509 373.5,237C 371.728,238.487 369.728,238.82 367.5,238C 361.614,235.156 355.781,232.323 350,229.5C 347.512,220.672 341.678,216.338 332.5,216.5C 332.372,212.119 332.705,207.785 333.5,203.5 Z"/></g>
<g><path style="opacity:1" fill="#00a016" d="M 294.5,209.5 C 292.876,238.489 291.376,267.489 290,296.5C 289.5,327.832 289.333,359.165 289.5,390.5C 285.427,391.955 281.927,394.288 279,397.5C 276.419,404.494 272.919,410.994 268.5,417C 267.668,417.688 267.002,417.521 266.5,416.5C 265.667,414.833 264.833,413.167 264,411.5C 264.999,400.147 264.666,388.814 263,377.5C 262.439,374.71 261.106,372.377 259,370.5C 258.333,365.833 258.333,361.167 259,356.5C 262.359,350.926 264.192,344.926 264.5,338.5C 262.259,327.941 260.759,317.274 260,306.5C 259.624,302.364 257.457,300.031 253.5,299.5C 250.141,300.039 246.807,300.705 243.5,301.5C 225.091,299.434 206.757,297.601 188.5,296C 186.316,295.133 184.149,294.299 182,293.5C 180.893,293.585 179.893,293.919 179,294.5C 175.153,290.821 172.319,286.488 170.5,281.5C 171.453,276.327 172.453,271.16 173.5,266C 172.385,260.78 170.718,255.78 168.5,251C 168.667,249.833 168.833,248.667 169,247.5C 176.159,239.859 181.826,231.192 186,221.5C 191.229,220.947 196.396,219.947 201.5,218.5C 205.066,214.111 208.399,209.611 211.5,205C 213.5,204.333 215.5,204.333 217.5,205C 226.021,209.304 234.521,209.471 243,205.5C 250.381,208.626 258.048,210.959 266,212.5C 272.972,210.856 279.972,209.189 287,207.5C 289.635,207.739 292.135,208.406 294.5,209.5 Z"/></g>
<g><path style="opacity:1" fill="#009b15" d="M 332.5,219.5 C 336.44,219.758 340.107,220.924 343.5,223C 345.207,226.248 347.04,229.415 349,232.5C 351.669,235.164 354.836,236.998 358.5,238C 349.443,238.544 340.443,238.044 331.5,236.5C 331.447,230.804 331.78,225.138 332.5,219.5 Z"/></g>
<g><path style="opacity:1" fill="#009614" d="M 458.5,233.5 C 459.638,236.304 459.805,239.304 459,242.5C 457.174,240.926 455.007,240.093 452.5,240C 454.706,237.963 456.706,235.797 458.5,233.5 Z"/></g>
<g><path style="opacity:1" fill="#009b15" d="M 328.5,276.5 C 334.861,277.07 341.195,277.903 347.5,279C 341.752,285.003 339.252,292.17 340,300.5C 339.605,304.019 338.605,307.352 337,310.5C 336.667,321.5 336.333,332.5 336,343.5C 334.532,349.569 332.865,355.569 331,361.5C 330,362.5 329,363.5 328,364.5C 327.494,335.163 327.661,305.83 328.5,276.5 Z"/></g>
<g><path style="opacity:1" fill="#001403" d="M 98.5,408.5 C 100.35,409.872 101.683,409.372 102.5,407C 103.448,406.517 104.448,406.351 105.5,406.5C 104.748,402.567 102.581,399.567 99,397.5C 97.1186,384.289 90.4519,374.289 79,367.5C 78,365.5 77,363.5 76,361.5C 76.0947,352.837 76.0947,344.17 76,335.5C 75.5031,322.677 69.0031,315.177 56.5,313C 53.4333,309.703 51.2666,305.869 50,301.5C 47.6806,298.227 44.514,296.56 40.5,296.5C 41.7976,304.494 41.7976,312.494 40.5,320.5C 44.0925,327.335 45.4258,334.668 44.5,342.5C 43.6753,338.353 43.1753,334.019 43,329.5C 41.8022,326.45 40.6355,323.45 39.5,320.5C 40.7547,312.165 40.7547,303.832 39.5,295.5C 42.2706,295.421 44.9373,295.921 47.5,297C 50.8214,301.966 54.1547,306.966 57.5,312C 70.0031,314.177 76.5031,321.677 77,334.5C 77.2487,343.177 77.2487,351.843 77,360.5C 78.1148,365.245 80.9481,368.412 85.5,370C 93.778,376.946 98.6113,385.779 100,396.5C 104.253,399.016 106.42,402.683 106.5,407.5C 104.048,407.624 102.048,408.624 100.5,410.5C 99.2867,410.253 98.62,409.586 98.5,408.5 Z"/></g>
<g><path style="opacity:1" fill="#00a017" d="M 98.5,408.5 C 76.3996,389.745 58.3996,367.745 44.5,342.5C 45.4258,334.668 44.0925,327.335 40.5,320.5C 41.7976,312.494 41.7976,304.494 40.5,296.5C 44.514,296.56 47.6806,298.227 50,301.5C 51.2666,305.869 53.4333,309.703 56.5,313C 69.0031,315.177 75.5031,322.677 76,335.5C 76.0947,344.17 76.0947,352.837 76,361.5C 77,363.5 78,365.5 79,367.5C 90.4519,374.289 97.1186,384.289 99,397.5C 102.581,399.567 104.748,402.567 105.5,406.5C 104.448,406.351 103.448,406.517 102.5,407C 101.683,409.372 100.35,409.872 98.5,408.5 Z"/></g>
<g><path style="opacity:1" fill="#000000" d="M 347.5,345.5 C 351.824,345.927 356.158,346.261 360.5,346.5C 359.299,352.502 359.299,358.502 360.5,364.5C 360.547,367.295 360.047,369.961 359,372.5C 354.535,378.57 349.702,384.404 344.5,390C 330.196,396.029 326.696,392.196 334,378.5C 338.064,374.774 341.73,370.774 345,366.5C 345.106,359.38 345.94,352.38 347.5,345.5 Z"/></g>
<g><path style="opacity:1" fill="#001402" d="M 349.5,347.5 C 352.455,348.159 355.455,348.492 358.5,348.5C 357.773,355.473 357.606,362.473 358,369.5C 352.963,375.719 347.796,381.886 342.5,388C 339.28,389.352 335.947,390.186 332.5,390.5C 332.965,386.938 334.132,383.605 336,380.5C 340.379,376.723 344.046,372.39 347,367.5C 347.199,360.732 348.032,354.066 349.5,347.5 Z"/></g>
<g><path style="opacity:1" fill="#00a116" d="M 350.5,348.5 C 352.746,349.21 355.08,349.71 357.5,350C 356.716,356.104 356.55,362.271 357,368.5C 351.963,374.719 346.796,380.886 341.5,387C 338.845,388.115 336.179,388.782 333.5,389C 334.522,386.455 335.688,383.955 337,381.5C 341.379,377.723 345.046,373.39 348,368.5C 348.199,361.732 349.032,355.066 350.5,348.5 Z"/></g>
</svg>
